:FULLY-SPECIFIED
:FORCE-ALL-JOINTS-BE-3DOF
:DEGREES
2650
root -1.48519 15.3667 -28.6352 1248.12 -70.7748 -172.413
lfemur -50.3451 23.936 -8.698
ltibia 53.8007 0 0
lfoot 18.7304 14.9957 0
ltoes -18.7561 0 0
rfemur -35.1598 -17.0846 23.7511
rtibia 67.1197 0 0
rfoot -23.9625 -5.6814 0
rtoes -6.26907 0 0
lowerback 18.8992 4.86879 -0.35836
upperback -0.195566 6.34078 0.321276
thorax -10.8877 2.98648 -1.20711
lowerneck -2.12079 9.54954 0.116482
upperneck 5.16575 12.6806 1.01116
head 1.90838 6.33788 0.579218
lclavicle 1.73131e-14 8.34895e-15 0
lhumerus 43.0324 -32.6653 51.54
lradius 115.496 0 0
lwrist -25.8926 0 0
lhand -38.4656 391.447 0
lfingers 7.12502 0 0
lthumb -2.8325 -672.475 0
rclavicle -1.18564e-14 4.55622e-15 0
rhumerus 0.567548 71.8577 -72.2537
rradius 103.555 0 0
rwrist -46.9774 0 0
rhand -3.02909 -387.752 0
rfingers 7.12502 0 0
rthumb 20.6518 305.033 0
2651
root -1.61232 15.3906 -28.607 1249.02 -69.6122 -173.636
lfemur -50.1965 24.3869 -8.52326
ltibia 52.3368 0 0
lfoot 19.7271 15.1322 0
ltoes -18.5871 0 0
rfemur -34.8556 -17.1205 23.4542
rtibia 67.1021 0 0
rfoot -24.1703 -6.12075 0
rtoes -6.44194 0 0
lowerback 18.8266 5.12403 -0.153294
upperback -0.251411 6.70753 0.145999
thorax -10.8608 3.14407 -1.60937
lowerneck -2.0623 9.54913 0.433048
upperneck 5.42582 12.6648 1.00295
head 2.00497 6.334 0.535951
lclavicle 1.13782e-14 7.15624e-15 0
lhumerus 40.6416 -31.8916 52.7659
lradius 115.699 0 0
lwrist -25.5597 0 0
lhand -38.5975 391.267 0
lfingers 7.12502 0 0
lthumb -3.73775 -671.604 0
rclavicle -1.42036e-14 6.16683e-15 0
rhumerus -2.11048 71.0561 -73.8336
rradius 104.723 0 0
rwrist -49.6836 0 0
rhand -2.07261 -387.585 0
rfingers 7.12502 0 0
rthumb 21.2365 305.26 0
2652
root -1.74699 15.4007 -28.5767 1249.82 -68.4407 -174.71
lfemur -50.0478 24.8377 -8.34853
ltibia 52.1816 0 0
lfoot 20.7238 15.2687 0
ltoes -18.4181 0 0
rfemur -34.5515 -17.1563 23.1572
rtibia 67.0844 0 0
rfoot -24.3782 -6.56009 0
rtoes -6.61481 0 0
lowerback 18.6485 5.27942 -0.109976
upperback -0.296713 6.92052 0.086902
thorax -10.7953 3.24382 -1.74166
lowerneck -1.9493 9.66813 0.769626
upperneck 5.77136 12.8108 0.922342
head 2.12694 6.40913 0.47193
lclavicle 5.44327e-15 5.96353e-15 0
lhumerus 38.2508 -31.1179 53.9917
lradius 115.901 0 0
lwrist -25.2268 0 0
lhand -38.7293 391.087 0
lfingers 7.12502 0 0
lthumb -4.64301 -670.734 0
rclavicle -1.65508e-14 7.77744e-15 0
rhumerus -4.78851 70.2545 -75.4135
rradius 105.891 0 0
rwrist -52.3899 0 0
rhand -1.11613 -387.419 0
rfingers 7.12502 0 0
rthumb 21.8211 305.487 0
2653
root -1.88081 15.4123 -28.5458 1250.22 -67.3189 -175.363
lfemur -49.8992 25.2886 -8.17379
ltibia 52.0265 0 0
lfoot 21.7205 15.4052 0
ltoes -18.2491 0 0
rfemur -34.2474 -17.1921 22.8603
rtibia 67.0667 0 0
rfoot -24.586 -6.99944 0
rtoes -6.78768 0 0
lowerback 18.4973 5.38331 0.153723
upperback -0.350577 7.11216 0.017496
thorax -10.7251 3.32156 -2.00236
lowerneck -2.08064 9.75007 1.1103
upperneck 6.21737 12.8958 0.995905
head 2.31642 6.45849 0.470434
lclavicle -4.91652e-16 4.77082e-15 0
lhumerus 35.86 -30.3441 55.2175
lradius 116.103 0 0
lwrist -24.894 0 0
lhand -38.8611 390.907 0
lfingers 7.12502 0 0
lthumb -5.54826 -669.864 0
rclavicle -1.8898e-14 9.38804e-15 0
rhumerus -7.46654 69.4529 -76.9934
rradius 107.059 0 0
rwrist -55.0961 0 0
rhand -0.159648 -387.252 0
rfingers 7.12502 0 0
rthumb 22.4057 305.714 0
2654
root -2.01745 15.4186 -28.5148 1250.53 -66.2216 -175.877
lfemur -49.7506 25.7395 -7.99906
ltibia 51.8713 0 0
lfoot 21.2446 14.8211 0
ltoes -18.0801 0 0
rfemur -33.9432 -17.228 22.5634
rtibia 67.0491 0 0
rfoot -24.7938 -7.43878 0
rtoes -6.96056 0 0
lowerback 18.2912 5.51299 0.443185
upperback -0.402093 7.35231 0.026626
thorax -10.6253 3.42507 -2.19786
lowerneck -1.96216 9.82146 1.05478
upperneck 6.48132 12.9939 0.9561
head 2.38215 6.50323 0.472659
lclavicle -6.42657e-15 3.57811e-15 0
lhumerus 33.4693 -29.5704 56.4433
lradius 116.305 0 0
lwrist -24.5611 0 0
lhand -38.993 390.727 0
lfingers 7.12502 0 0
lthumb -6.45351 -668.994 0
rclavicle -2.12452e-14 1.09986e-14 0
rhumerus -10.1446 68.6512 -78.5733
rradius 108.227 0 0
rwrist -57.8024 0 0
rhand 0.796834 -387.086 0
rfingers 7.12502 0 0
rthumb 22.9904 305.941 0
2655
root -2.1604 15.41 -28.4822 1250.61 -65.1564 -176.115
lfemur -49.6019 26.1904 -7.82432
ltibia 51.7162 0 0
lfoot 20.7686 14.237 0
ltoes -17.911 0 0
rfemur -33.6391 -17.2638 22.2665
rtibia 67.0314 0 0
rfoot -25.0017 -7.87813 0
rtoes -7.13343 0 0
lowerback 17.9732 5.52267 0.717587
upperback -0.395081 7.44089 0.171991
thorax -10.4206 3.46586 -2.18055
lowerneck -2.01361 9.97896 0.936456
upperneck 6.84729 13.2177 0.779989
head 2.51869 6.6043 0.461187
lclavicle -1.23615e-14 2.3854e-15 0
lhumerus 31.0785 -28.7967 57.6691
lradius 116.508 0 0
lwrist -24.2282 0 0
lhand -39.1248 390.547 0
lfingers 7.12502 0 0
lthumb -7.35877 -668.124 0
rclavicle -2.35924e-14 1.26093e-14 0
rhumerus -12.8226 67.8496 -80.1532
rradius 109.395 0 0
rwrist -60.5087 0 0
rhand 1.75332 -386.919 0
rfingers 7.12502 0 0
rthumb 23.575 306.168 0
2656
root -2.29888 15.4092 -28.4506 1250.68 -64.124 -176.312
lfemur -49.4533 26.6412 -7.64959
ltibia 51.561 0 0
lfoot 20.2927 13.6529 0
ltoes -17.742 0 0
rfemur -33.335 -17.2996 21.9695
rtibia 67.4864 0 0
rfoot -25.2095 -8.31747 0
rtoes -7.3063 0 0
lowerback 17.6746 5.64296 1.12687
upperback -0.44559 7.69285 0.207035
thorax -10.2516 3.57344 -2.40251
lowerneck -1.98806 10.1079 1.13313
upperneck 7.10067 13.3916 0.600947
head 2.6279 6.68828 0.391811
lclavicle -1.82964e-14 1.1927e-15 0
lhumerus 28.6877 -28.023 58.8949
lradius 116.71 0 0
lwrist -23.8953 0 0
lhand -39.2566 390.367 0
lfingers 7.12502 0 0
lthumb -8.26402 -667.254 0
rclavicle -2.59396e-14 1.42199e-14 0
rhumerus -15.5006 67.048 -81.7331
rradius 110.562 0 0
rwrist -63.2149 0 0
rhand 2.7098 -386.753 0
rfingers 7.12502 0 0
rthumb 24.1596 306.395 0
